<svg width="85" height="25" viewBox="0 0 85 25" fill="none" xmlns="http://www.w3.org/2000/svg">
<rect width="30" height="25" fill="#38A39D"/>
<g clip-path="url(#clip0_282_19)">
<path d="M2.99988 5.00006L11.2421 20.0568H16.6233L8.38115 5.00006H2.99988Z" fill="#FDFDFE"/>
<path d="M11.1399 5.00006L19.3821 20.0568H26.9999L18.7577 5.00006H11.1399Z" fill="#FDFDFE"/>
<path d="M26.892 15.5535L21.1134 5.00006H26.892V15.5535Z" fill="#FDFDFE"/>
<path d="M2.99988 9.50812L8.7785 20.0568H2.99988V9.50812Z" fill="#FDFDFE"/>
</g>
<path d="M46.5488 19H43.9121L38.7793 10.5801V19H36.1426V6.20312H38.7793L43.9209 14.6406V6.20312H46.5488V19ZM56.5508 13.4541H51.4883V16.8818H57.4297V19H48.8516V6.20312H57.4121V8.33887H51.4883V11.3887H56.5508V13.4541ZM68.9434 15.3086L70.666 6.20312H73.2939L70.4551 19H67.8008L65.7178 10.4395L63.6348 19H60.9805L58.1416 6.20312H60.7695L62.501 15.291L64.6104 6.20312H66.8428L68.9434 15.3086ZM81.3623 15.6426C81.3623 15.1445 81.1865 14.7637 80.835 14.5C80.4834 14.2305 79.8506 13.9492 78.9365 13.6562C78.0225 13.3574 77.2988 13.0645 76.7656 12.7773C75.3125 11.9922 74.5859 10.9346 74.5859 9.60449C74.5859 8.91309 74.7793 8.29785 75.166 7.75879C75.5586 7.21387 76.1182 6.78906 76.8447 6.48438C77.5771 6.17969 78.3975 6.02734 79.3057 6.02734C80.2197 6.02734 81.0342 6.19434 81.749 6.52832C82.4639 6.85645 83.0176 7.32227 83.4102 7.92578C83.8086 8.5293 84.0078 9.21484 84.0078 9.98242H81.3711C81.3711 9.39648 81.1865 8.94238 80.8174 8.62012C80.4482 8.29199 79.9297 8.12793 79.2617 8.12793C78.6172 8.12793 78.1162 8.26562 77.7588 8.54102C77.4014 8.81055 77.2227 9.16797 77.2227 9.61328C77.2227 10.0293 77.4307 10.3779 77.8467 10.6592C78.2686 10.9404 78.8867 11.2041 79.7012 11.4502C81.2012 11.9014 82.2939 12.4609 82.9795 13.1289C83.665 13.7969 84.0078 14.6289 84.0078 15.625C84.0078 16.7324 83.5889 17.6025 82.751 18.2354C81.9131 18.8623 80.7852 19.1758 79.3672 19.1758C78.3828 19.1758 77.4863 18.9971 76.6777 18.6396C75.8691 18.2764 75.251 17.7812 74.8232 17.1543C74.4014 16.5273 74.1904 15.8008 74.1904 14.9746H76.8359C76.8359 16.3867 77.6797 17.0928 79.3672 17.0928C79.9941 17.0928 80.4834 16.9668 80.835 16.7148C81.1865 16.457 81.3623 16.0996 81.3623 15.6426Z" fill="#38A39D"/>
<defs>
<clipPath id="clip0_282_19">
<rect width="24" height="15.0568" fill="white" transform="translate(2.99988 5.00006)"/>
</clipPath>
</defs>
</svg>
